{"title":"Andrea - Hottie Teen - XXX - 3D SBS - 720p - DEX","uid":11283094,"size":690070685,"categoryP":"porn","categoryS":"hd___movies","magnet":"?xt=urn:btih:1fab8ff8ed2662cfec298fe50529020f4e1488c3&amp;dn=Andrea+-+Hottie+Teen+-+XXX+-+3D+SBS+-+720p+-+DEX&amp;tr=udp%3A%2F%2Ftracker.openbittorrent.com%3A80&amp;tr=udp%3A%2F%2Fopen.demonii.com%3A1337&amp;tr=udp%3A%2F%2Ftracker.coppersurfer.tk%3A6969&amp;tr=udp%3A%2F%2Fexodus.desync.com%3A6969","seeders":14,"leechers":6,"uploader":"Dexnet24","files":3,"time":1414245624,"description":"\nScreenshot:\n &lt;a href=&quot; http://bayimg.com/IaCjoaaGF&quot; rel=&quot;nofollow&quot; target=&quot;_NEW&quot;&gt; http://bayimg.com/IaCjoaaGF&lt;/a&gt;\n\n\nGeneral\nComplete name: Andrea - Hottie Teen - XXX - 3D SBS - 720p - DEX.mp4\nFormat: MPEG-4\nFormat profile: Base Media / Version 2\nCodec ID: mp42\nFile size: 657 MiB\nDuration: 18mn 13s\nOverall bit rate mode: Variable\nOverall bit rate: 5 042 Kbps\nWriting application: TMPGEnc Video Mastering Works 5 Version. 5.0.6.38\n\nVideo\nID: 2\nFormat: AVC\nFormat/Info: Advanced Video Codec\nFormat profile: &lt;a class=&quot;__cf_email__&quot; href=&quot;/cdn-cgi/l/email-protection&quot; data-cfemail=&quot;1a52737d725a5629342b&quot;&gt;[email&amp;#160;protected]&lt;/a&gt;&lt;script cf-hash='f9e31' type=&quot;text/javascript&quot;&gt;\n/* &lt;![CDATA[ */!function(){try{var t=&quot;currentScript&quot;in document?document.currentScript:function(){for(var t=document.getElementsByTagName(&quot;script&quot;),e=t.length;e--;)if(t[e].getAttribute(&quot;cf-hash&quot;))return t[e]}();if(t&amp;&amp;t.previousSibling){var e,r,n,i,c=t.previousSibling,a=c.getAttribute(&quot;data-cfemail&quot;);if(a){for(e=&quot;&quot;,r=parseInt(a.substr(0,2),16),n=2;a.length-n;n+=2)i=parseInt(a.substr(n,2),16)^r,e+=String.fromCharCode(i);e=document.createTextNode(e),c.parentNode.replaceChild(e,c)}}}catch(u){}}();/* ]]&gt; */&lt;/script&gt;\nFormat settings, CABAC: Yes\nFormat settings, ReFrames: 3 frames\nCodec ID: avc1\nCodec ID/Info: Advanced Video Coding\nDuration: 18mn 13s\nBit rate mode: Constant\nBit rate: 5 000 Kbps / 5 000 Kbps\nWidth: 1 280 pixels\nHeight: 720 pixels\nDisplay aspect ratio: 16:9\nFrame rate mode: Constant\nFrame rate: 25.000 fps\nStandard: NTSC\nColor space: YUV\nChroma subsampling: 4:2:0\nBit depth: 8 bits\nScan type: Progressive\nBits/(Pixel*Frame): 0.217\nStream size: 640 MiB (97%)\nWriting library: x264 core 114\nEncoding settings: cabac=1 / ref=3 / deblock=1:0:0 / analyse=0x3:0x113 / me=hex / subme=7 / psy=1 / psy_rd=1.00:0.00 / mixed_ref=1 / me_range=16 / chroma_me=1 / trellis=1 / 8x8dct=1 / cqm=2 / deadzone=21,11 / fast_pskip=1 / chroma_qp_offset=-2 / threads=3 / sliced_threads=0 / slices=1 / nr=0 / decimate=1 / interlaced=0 / constrained_intra=0 / bframes=3 / b_pyramid=0 / b_adapt=1 / b_bias=0 / direct=1 / weightb=1 / open_gop=0 / weightp=2 / keyint=250 / keyint_min=25 / scenecut=40 / intra_refresh=0 / rc_lookahead=40 / rc=cbr / mbtree=1 / bitrate=5000 / ratetol=1.0 / qcomp=0.60 / qpmin=3 / qpmax=69 / qpstep=4 / vbv_maxrate=5000 / vbv_bufsize=4997 / nal_hrd=cbr / ip_ratio=1.40 / aq=1:1.00\nColor primaries: BT.709\nTransfer characteristics: BT.709\nMatrix coefficients: BT.709\n\nAudio\nID: 1\nFormat: AAC\nFormat/Info: Advanced Audio Codec\nFormat profile: LC\nCodec ID: 40\nDuration: 18mn 13s\nBit rate mode: Variable\nBit rate: 128 Kbps\nMaximum bit rate: 576 Kbps\nChannel(s): 2 channels\nChannel positions: Front: L R\nSampling rate: 48.0 KHz\nCompression mode: Lossy\nStream size: 16.7 MiB (3%)","torrent":{"xt":"urn:btih:1fab8ff8ed2662cfec298fe50529020f4e1488c3","amp;dn":"Andrea+-+Hottie+Teen+-+XXX+-+3D+SBS+-+720p+-+DEX","amp;tr":["udp%3A%2F%2Ftracker.openbittorrent.com%3A80","udp%3A%2F%2Fopen.demonii.com%3A1337","udp%3A%2F%2Ftracker.coppersurfer.tk%3A6969","udp%3A%2F%2Fexodus.desync.com%3A6969"],"infoHash":"1fab8ff8ed2662cfec298fe50529020f4e1488c3","infoHashBuffer":{"type":"Buffer","data":[31,171,143,248,237,38,98,207,236,41,143,229,5,41,2,15,78,20,136,195]},"announce":[],"urlList":[]}}